<svg xmlns="http://www.w3.org/2000/svg" viewBox="0 0 300 450" width="100%" height="100%">
  <defs>
    <filter id="neon-glow-v2" x="-50%" y="-50%" width="200%" height="200%">
      <feGaussianBlur stdDeviation="4" result="blur" />
      <feMerge>
        <feMergeNode in="blur" />
        <feMergeNode in="SourceGraphic" />
      </feMerge>
    </filter>
  </defs>

  <rect width="300" height="450" fill="#ffffff"/>

  <path d="M 30,20 L 270,20 L 280,30 L 280,420 L 270,430 L 30,430 L 20,420 L 20,30 Z" fill="none" stroke="#1a2a3a" stroke-width="2"/>
  <path d="M 40,35 L 260,35 L 260,415 L 40,415 Z" fill="none" stroke="#00d2ff" stroke-width="1" stroke-dasharray="2,6" filter="url(#neon-glow-v2)"/>

  <g transform="translate(150, 225)">
    <circle cx="0" cy="0" r="90" fill="none" stroke="#1a2a3a" stroke-width="0.5" stroke-dasharray="10, 15" opacity="0.5"/>
    <circle cx="0" cy="0" r="105" fill="none" stroke="#00d2ff" stroke-width="1" stroke-dasharray="5, 30, 20, 10" filter="url(#neon-glow-v2)"/>
    
    <circle cx="0" cy="0" r="64" fill="none" stroke="#00d2ff" stroke-width="2" filter="url(#neon-glow-v2)"/>

    <path d="M 0,-60 A 60,60 0 0,1 0,60 A 30,30 0 0,0 0,0 A 30,30 0 0,1 0,-60 Z" fill="#1a2a3a" />
    
    <g filter="url(#neon-glow-v2)">
        <path d="M 0,-60 A 60,60 0 0,0 0,60 A 30,30 0 0,0 0,0 A 30,30 0 0,1 0,-60 Z" fill="#00d2ff" />
    </g>
    
    <circle cx="0" cy="-30" r="8" fill="#00d2ff" filter="url(#neon-glow-v2)" />
    
    <circle cx="0" cy="30" r="8" fill="#1a2a3a" />
  </g>
  
  <rect x="120" y="40" width="60" height="8" fill="#1a2a3a"/>
  <rect x="120" y="52" width="20" height="2" fill="#1a2a3a"/>
  <rect x="145" y="52" width="35" height="2" fill="#00d2ff" filter="url(#neon-glow-v2)"/>
  
  <rect x="120" y="390" width="60" height="8" fill="#1a2a3a"/>
  <rect x="120" y="402" width="35" height="2" fill="#1a2a3a"/>
  <rect x="160" y="402" width="20" height="2" fill="#00d2ff" filter="url(#neon-glow-v2)"/>
</svg>